<?xml version="1.0" encoding="UTF-8" standalone="no"?>
<svg width="150px" height="150px" viewBox="0 0 150 150" version="1.1" xmlns="http://www.w3.org/2000/svg" xmlns:xlink="http://www.w3.org/1999/xlink" xmlns:sketch="http://www.bohemiancoding.com/sketch/ns">
    <!-- Generator: Sketch 3.3.3 (12081) - http://www.bohemiancoding.com/sketch -->
    <title>UXD</title>
    <desc>Created with Sketch.</desc>
    <defs></defs>
    <g id="Page-1" stroke="none" stroke-width="1" fill="none" fill-rule="evenodd" sketch:type="MSPage">
        <g id="UXD" sketch:type="MSArtboardGroup">
            <g id="UX" sketch:type="MSLayerGroup">
                <circle id="Oval-8" fill="#343D49" sketch:type="MSShapeGroup" cx="75" cy="75" r="75"></circle>
                <path d="M61.68,90.48 C69.8,90.48 73.72,85.92 73.72,79.32 L73.72,63.32 L67.92,63.32 L67.92,79.16 C67.92,82.88 65.8,85.44 61.68,85.44 C57.56,85.44 55.4,82.88 55.4,79.16 L55.4,63.32 L49.64,63.32 L49.64,79.32 C49.64,85.92 53.56,90.48 61.68,90.48 L61.68,90.48 Z M103.2,90 L93.52,76.28 L102.6,63.32 L95.76,63.32 L89.72,72.44 L83.6,63.32 L76.84,63.32 L85.92,76.32 L76.24,90 L83,90 L89.72,80.24 L96.4,90 L103.2,90 Z" fill="#FFFFFF" sketch:type="MSShapeGroup"></path>
            </g>
        </g>
    </g>
</svg>